<svg width="20" height="20" viewBox="0 0 20 20" fill="none" xmlns="http://www.w3.org/2000/svg">
<path d="M4.99935 3.33341C6.39102 2.29175 8.12435 1.66675 9.99935 1.66675C14.5993 1.66675 18.3327 5.40008 18.3327 10.0001C18.3327 14.6001 14.5993 18.3334 9.99935 18.3334C5.39935 18.3334 1.66602 14.6001 1.66602 10.0001C1.66602 8.49175 2.066 7.07507 2.77434 5.85007L9.99935 10.0001" stroke="#292D32" strokeWidth="1.5" strokeMiterlimit="10" strokeLinecap="round" strokeLinejoin="round"/>
<path d="M5.69166 7.46666C5.24999 8.20833 5 9.075 5 10C5 12.7583 7.24167 15 10 15C12.7583 15 15 12.7583 15 10C15 7.24167 12.7583 5 10 5C9.24167 5 8.51668 5.16667 7.87501 5.47501" stroke="#292D32" strokeWidth="1.5" strokeMiterlimit="10" strokeLinecap="round" strokeLinejoin="round"/>
</svg>
