<svg width="18" height="18" viewBox="0 0 18 18" fill="none" xmlns="http://www.w3.org/2000/svg">
<g clip-path="url(#clip0_3067_2607)">
<path fill-rule="evenodd" clip-rule="evenodd" d="M0 0.5625C0 0.413316 0.0592632 0.270242 0.164752 0.164752C0.270242 0.0592632 0.413316 0 0.5625 0L3.9375 0C4.08668 0 4.22976 0.0592632 4.33525 0.164752C4.44074 0.270242 4.5 0.413316 4.5 0.5625C4.5 0.711684 4.44074 0.854758 4.33525 0.960248C4.22976 1.06574 4.08668 1.125 3.9375 1.125H1.92037L3.9375 3.14212L4.66425 2.41425C4.71655 2.36195 4.77864 2.32047 4.84697 2.29216C4.9153 2.26386 4.98854 2.24929 5.0625 2.24929C5.13646 2.24929 5.2097 2.26386 5.27803 2.29216C5.34636 2.32047 5.40845 2.36195 5.46075 2.41425C5.51305 2.46655 5.55453 2.52864 5.58284 2.59697C5.61114 2.6653 5.62571 2.73854 5.62571 2.8125C5.62571 2.88646 5.61114 2.9597 5.58284 3.02803C5.55453 3.09636 5.51305 3.15845 5.46075 3.21075L4.73287 3.9375L5.65762 4.86225C6.07954 4.39413 6.59509 4.01985 7.17086 3.76365C7.74663 3.50745 8.3698 3.37504 9 3.375C10.3275 3.375 11.5189 3.94875 12.3424 4.86225L16.0796 1.125H12.9375C12.7883 1.125 12.6452 1.06574 12.5398 0.960248C12.4343 0.854758 12.375 0.711684 12.375 0.5625C12.375 0.413316 12.4343 0.270242 12.5398 0.164752C12.6452 0.0592632 12.7883 0 12.9375 0L17.4375 0C17.5867 0 17.7298 0.0592632 17.8352 0.164752C17.9407 0.270242 18 0.413316 18 0.5625V5.0625C18 5.21168 17.9407 5.35476 17.8352 5.46025C17.7298 5.56574 17.5867 5.625 17.4375 5.625C17.2883 5.625 17.1452 5.56574 17.0398 5.46025C16.9343 5.35476 16.875 5.21168 16.875 5.0625V1.92037L12.9938 5.80163C13.3282 6.44524 13.5021 7.16014 13.5006 7.88545C13.4992 8.61076 13.3224 9.32497 12.9854 9.96724C12.6484 10.6095 12.1612 11.1608 11.5652 11.5742C10.9692 11.9875 10.2821 12.2507 9.5625 12.3413V14.625H11.25C11.3992 14.625 11.5423 14.6843 11.6477 14.7898C11.7532 14.8952 11.8125 15.0383 11.8125 15.1875C11.8125 15.3367 11.7532 15.4798 11.6477 15.5852C11.5423 15.6907 11.3992 15.75 11.25 15.75H9.5625V17.4375C9.5625 17.5867 9.50324 17.7298 9.39775 17.8352C9.29226 17.9407 9.14918 18 9 18C8.85082 18 8.70774 17.9407 8.60225 17.8352C8.49676 17.7298 8.4375 17.5867 8.4375 17.4375V15.75H6.75C6.60082 15.75 6.45774 15.6907 6.35225 15.5852C6.24676 15.4798 6.1875 15.3367 6.1875 15.1875C6.1875 15.0383 6.24676 14.8952 6.35225 14.7898C6.45774 14.6843 6.60082 14.625 6.75 14.625H8.4375V12.3413C7.71771 12.2508 7.03047 11.9876 6.43434 11.5742C5.83822 11.1607 5.35088 10.6093 5.01387 9.96689C4.67686 9.32446 4.50016 8.61008 4.49883 7.88463C4.49751 7.15917 4.67159 6.44415 5.00625 5.8005L3.9375 4.73287L3.21075 5.46075C3.15845 5.51305 3.09636 5.55453 3.02803 5.58284C2.9597 5.61114 2.88646 5.62571 2.8125 5.62571C2.73854 5.62571 2.6653 5.61114 2.59697 5.58284C2.52864 5.55453 2.46655 5.51305 2.41425 5.46075C2.36195 5.40845 2.32047 5.34636 2.29216 5.27803C2.26386 5.2097 2.24929 5.13646 2.24929 5.0625C2.24929 4.98854 2.26386 4.9153 2.29216 4.84697C2.32047 4.77864 2.36195 4.71655 2.41425 4.66425L3.14212 3.9375L1.125 1.92037V3.9375C1.125 4.08668 1.06574 4.22976 0.960248 4.33525C0.854758 4.44074 0.711684 4.5 0.5625 4.5C0.413316 4.5 0.270242 4.44074 0.164752 4.33525C0.0592632 4.22976 0 4.08668 0 3.9375V0.5625ZM6.17625 6.0255C5.93337 6.39632 5.76591 6.81135 5.68342 7.24689C5.60094 7.68243 5.60505 8.12995 5.69551 8.5639C5.78598 8.99785 5.96104 9.40973 6.21068 9.77603C6.46033 10.1423 6.77968 10.4559 7.1505 10.6988C7.52132 10.9416 7.93635 11.1091 8.37189 11.1916C8.80743 11.2741 9.25495 11.27 9.6889 11.1795C10.1229 11.089 10.5347 10.914 10.901 10.6643C11.2673 10.4147 11.5809 10.0953 11.8238 9.7245C12.3143 8.97559 12.4872 8.06251 12.3045 7.1861C12.1218 6.3097 11.5984 5.54177 10.8495 5.05125C10.1006 4.56073 9.18751 4.38781 8.3111 4.57051C7.4347 4.75322 6.66677 5.27659 6.17625 6.0255Z" fill="#292D32"/>
</g>
<defs>
<clipPath id="clip0_3067_2607">
<rect width="18" height="18" fill="white"/>
</clipPath>
</defs>
</svg>
