<svg width="44" height="45" viewBox="0 0 44 45" fill="none" xmlns="http://www.w3.org/2000/svg">
<path d="M16.4974 40.8334H27.4974C36.6641 40.8334 40.3307 37.1667 40.3307 28.0001V17.0001C40.3307 7.83341 36.6641 4.16675 27.4974 4.16675H16.4974C7.33073 4.16675 3.66406 7.83341 3.66406 17.0001V28.0001C3.66406 37.1667 7.33073 40.8334 16.4974 40.8334Z" stroke="black" stroke-width="2.5" stroke-linecap="round" stroke-linejoin="round"/>
<path d="M31.1693 4.97314V23.2698C31.1693 26.8815 28.5843 28.2931 25.4126 26.3865L22.9926 24.9381C22.4426 24.6081 21.5626 24.6081 21.0126 24.9381L18.5926 26.3865C15.4209 28.2748 12.8359 26.8815 12.8359 23.2698V4.97314" stroke="black" stroke-width="2.5" stroke-linecap="round" stroke-linejoin="round"/>
<path d="M16.4974 40.8334H27.4974C36.6641 40.8334 40.3307 37.1667 40.3307 28.0001V17.0001C40.3307 7.83341 36.6641 4.16675 27.4974 4.16675H16.4974C7.33073 4.16675 3.66406 7.83341 3.66406 17.0001V28.0001C3.66406 37.1667 7.33073 40.8334 16.4974 40.8334Z" stroke="black" stroke-width="2.5" stroke-linecap="round" stroke-linejoin="round"/>
<path d="M31.1693 4.97314V23.2698C31.1693 26.8815 28.5843 28.2931 25.4126 26.3865L22.9926 24.9381C22.4426 24.6081 21.5626 24.6081 21.0126 24.9381L18.5926 26.3865C15.4209 28.2748 12.8359 26.8815 12.8359 23.2698V4.97314" stroke="black" stroke-width="2.5" stroke-linecap="round" stroke-linejoin="round"/>
</svg>
