<svg width="44" height="45" viewBox="0 0 44 45" fill="none" xmlns="http://www.w3.org/2000/svg">
<path d="M22 1.75C26.5068 1.75 30.0517 1.95386 32.8447 2.49121C35.6313 3.02735 37.5772 3.87873 38.9678 5.10449C41.7372 7.5459 42.75 11.8739 42.75 20.0557C42.75 25.3426 42.2811 29.3541 40.9365 32.0205C40.2818 33.3189 39.4333 34.267 38.3438 34.9023C37.2469 35.5419 35.8154 35.917 33.917 35.917C31.6594 35.917 30.0166 36.4218 28.7539 37.2773C27.5136 38.1177 26.7552 39.2237 26.1582 40.1631C25.5213 41.1653 25.113 41.8824 24.5098 42.4238C23.9896 42.8905 23.2806 43.25 22 43.25C20.7201 43.2499 20.0122 42.8904 19.4922 42.4238C18.8888 41.8824 18.4798 41.1653 17.8428 40.1631C17.2458 39.2237 16.4873 38.1177 15.2471 37.2773C13.9843 36.4218 12.3416 35.917 10.084 35.917C8.19211 35.917 6.7637 35.5317 5.66699 34.8789C4.57548 34.2291 3.72393 33.2614 3.06641 31.9463C1.71867 29.2505 1.25001 25.2344 1.25 20.0557C1.25 11.9754 2.26073 7.64001 5.03613 5.17285C6.42935 3.93443 8.37776 3.06762 11.1621 2.51758C13.9531 1.96626 17.496 1.75 22 1.75Z" stroke="#212135" stroke-width="2.5" stroke-linecap="round" stroke-linejoin="round"/>
<circle cx="14.6673" cy="20.6666" r="1.83333" fill="#212135"/>
<circle cx="21.9993" cy="20.6666" r="1.83333" fill="#212135"/>
<circle cx="29.3333" cy="20.6666" r="1.83333" fill="#212135"/>
</svg>
