<svg width="52" height="45" viewBox="0 0 52 45" fill="none" xmlns="http://www.w3.org/2000/svg">
<path d="M17.5 40.75C20.4701 40.75 22.8089 40.6615 24.6514 40.4355C26.5038 40.2084 27.7608 39.8522 28.624 39.376C29.4419 38.9247 29.9365 38.3504 30.2539 37.5625C30.5916 36.7241 30.75 35.589 30.75 34C30.75 32.411 30.5916 31.2759 30.2539 30.4375C29.9365 29.6496 29.4419 29.0753 28.624 28.624C27.7608 28.1478 26.5038 27.7916 24.6514 27.5645C22.8089 27.3385 20.4701 27.25 17.5 27.25C14.5299 27.25 12.1911 27.3385 10.3486 27.5645C8.49619 27.7916 7.23917 28.1478 6.37598 28.624C5.55811 29.0753 5.06353 29.6496 4.74609 30.4375C4.40836 31.2759 4.25 32.411 4.25 34C4.25 35.589 4.40836 36.7241 4.74609 37.5625C5.06353 38.3504 5.55811 38.9247 6.37598 39.376C7.23917 39.8522 8.49619 40.2084 10.3486 40.4355C12.1911 40.6615 14.5299 40.75 17.5 40.75Z" stroke="#212135" stroke-width="2.5" stroke-linecap="round" stroke-linejoin="round"/>
<path d="M17.5 4.25C13.0033 4.25 9.25 8.10632 9.25 13C9.25 17.8937 13.0033 21.75 17.5 21.75C21.9967 21.75 25.75 17.8937 25.75 13C25.75 8.10632 21.9967 4.25 17.5 4.25Z" stroke="#212135" stroke-width="2.5"/>
<path d="M30 8C34.2 8 37 11.25 37 14.5C37 17.75 34.2 21 30 21" stroke="#212135" stroke-width="2.5" stroke-linecap="round" stroke-linejoin="round"/>
<path d="M37.4667 37C43.5333 37 47 36.2143 47 31.5C47 26.7857 43.5333 26 34 26" stroke="#212135" stroke-width="2.5" stroke-linecap="round" stroke-linejoin="round"/>
</svg>
