<svg width="44" height="45" viewBox="0 0 44 45" fill="none" xmlns="http://www.w3.org/2000/svg">
<path d="M31.1673 10.5833C30.709 5.69438 27.5007 2.33325 22.0007 2.33325C16.5007 2.33325 13.2923 5.69439 12.834 10.5833" stroke="#212135" stroke-width="2.5" stroke-linecap="round" stroke-linejoin="round"/>
<path d="M22 43.25C26.5071 43.25 30.0608 43.0577 32.8643 42.5645C35.6667 42.0714 37.6247 41.293 39.0176 40.1904C41.7449 38.0313 42.75 34.2579 42.75 27.083C42.75 22.8163 42.3981 19.7242 41.5098 17.4561C40.5178 14.9234 38.8254 13.3342 35.8408 12.334C32.7529 11.2992 28.3349 10.917 22 10.917C15.6651 10.917 11.2471 11.2992 8.15918 12.334C5.17456 13.3342 3.48218 14.9234 2.49023 17.4561C1.60194 19.7242 1.25002 22.8163 1.25 27.083C1.25 34.2579 2.25515 38.0313 4.98242 40.1904C6.37533 41.293 8.33335 42.0714 11.1357 42.5645C13.9392 43.0577 17.4929 43.25 22 43.25Z" stroke="#212135" stroke-width="2.5" stroke-linecap="round" stroke-linejoin="round"/>
</svg>
