<svg width="44" height="45" viewBox="0 0 44 45" fill="none" xmlns="http://www.w3.org/2000/svg">
<path d="M38.6476 16.2301V28.7701C38.6476 30.8234 37.5476 32.7302 35.7693 33.7752L24.8793 40.0635C23.1009 41.0901 20.9009 41.0901 19.1043 40.0635L8.21427 33.7752C6.43594 32.7485 5.33594 30.8417 5.33594 28.7701V16.2301C5.33594 14.1768 6.43594 12.2701 8.21427 11.2251L19.1043 4.93675C20.8826 3.91008 23.0826 3.91008 24.8793 4.93675L35.7693 11.2251C37.5476 12.2701 38.6476 14.1585 38.6476 16.2301Z" stroke="#292D32" stroke-width="2.5" stroke-linecap="round" stroke-linejoin="round"/>
<path d="M22.0002 20.6666C24.3594 20.6666 26.2719 18.7541 26.2719 16.3949C26.2719 14.0357 24.3594 12.1233 22.0002 12.1233C19.641 12.1233 17.7285 14.0357 17.7285 16.3949C17.7285 18.7541 19.641 20.6666 22.0002 20.6666Z" stroke="#292D32" stroke-width="2.5" stroke-linecap="round" stroke-linejoin="round"/>
<path d="M29.3327 31.0432C29.3327 27.7432 26.051 25.0667 21.9993 25.0667C17.9477 25.0667 14.666 27.7432 14.666 31.0432" stroke="#292D32" stroke-width="2.5" stroke-linecap="round" stroke-linejoin="round"/>
</svg>
