<svg width="178" height="28" viewBox="0 0 178 28" fill="none" xmlns="http://www.w3.org/2000/svg">
<path d="M12.1263 7.77789C14.3889 7.77789 16.2037 8.53209 17.5707 10.0405C18.9377 11.5254 19.6212 13.5759 19.6212 16.192V27.7173H13.6111V17.0052C13.6111 15.6853 13.2694 14.66 12.5859 13.9294C11.9024 13.1988 10.9832 12.8334 9.82828 12.8334C8.6734 12.8334 7.75421 13.1988 7.07071 13.9294C6.38721 14.66 6.04545 15.6853 6.04545 17.0052V27.7173H0V1.55566H6.04545V10.6415C6.65825 9.76947 7.49495 9.07418 8.55556 8.55566C9.61616 8.03714 10.8064 7.77789 12.1263 7.77789Z" fill="white"/>
<path d="M43.302 7.99001V27.7173H37.2565V25.0304C36.6438 25.9025 35.8071 26.6095 34.7464 27.1516C33.7094 27.6701 32.5545 27.9294 31.2818 27.9294C29.7734 27.9294 28.4417 27.5994 27.2869 26.9395C26.132 26.256 25.2363 25.2779 24.6 24.0052C23.9636 22.7324 23.6454 21.2358 23.6454 19.5153V7.99001H29.6555V18.7021C29.6555 20.022 29.9973 21.0472 30.6808 21.7779C31.3643 22.5085 32.2835 22.8738 33.4384 22.8738C34.6168 22.8738 35.5478 22.5085 36.2313 21.7779C36.9148 21.0472 37.2565 20.022 37.2565 18.7021V7.99001H43.302Z" fill="white"/>
<path d="M72.8161 7.77789C75.2673 7.77789 77.2118 8.52031 78.6495 10.0052C80.1107 11.49 80.8414 13.5523 80.8414 16.192V27.7173H74.8313V17.0052C74.8313 15.7324 74.4895 14.7543 73.806 14.0708C73.1461 13.3637 72.2269 13.0102 71.0485 13.0102C69.87 13.0102 68.939 13.3637 68.2555 14.0708C67.5956 14.7543 67.2656 15.7324 67.2656 17.0052V27.7173H61.2555V17.0052C61.2555 15.7324 60.9138 14.7543 60.2303 14.0708C59.5703 13.3637 58.6511 13.0102 57.4727 13.0102C56.2942 13.0102 55.3633 13.3637 54.6798 14.0708C54.0198 14.7543 53.6899 15.7324 53.6899 17.0052V27.7173H47.6444V7.99001H53.6899V10.4648C54.3027 9.63984 55.104 8.99169 56.0939 8.52031C57.0838 8.02536 58.2033 7.77789 59.4525 7.77789C60.9373 7.77789 62.2572 8.09607 63.4121 8.73243C64.5905 9.36879 65.5097 10.2762 66.1697 11.4547C66.8532 10.3705 67.7841 9.48664 68.9626 8.80314C70.141 8.11964 71.4256 7.77789 72.8161 7.77789Z" fill="white"/>
<path d="M93.0937 28C91.3731 28 89.8411 27.7054 88.4977 27.1162C87.1543 26.5269 86.0937 25.7256 85.3159 24.7121C84.5381 23.6751 84.1021 22.5202 84.0078 21.2475H89.9826C90.0533 21.931 90.3714 22.4848 90.9371 22.9091C91.5028 23.3333 92.198 23.5455 93.023 23.5455C93.7772 23.5455 94.3546 23.404 94.7553 23.1212C95.1795 22.8148 95.3916 22.4259 95.3916 21.9545C95.3916 21.3889 95.097 20.9764 94.5078 20.7172C93.9186 20.4343 92.964 20.1279 91.6442 19.798C90.23 19.468 89.0516 19.1263 88.1088 18.7727C87.1661 18.3956 86.3529 17.8182 85.6694 17.0404C84.9859 16.2391 84.6442 15.1667 84.6442 13.8232C84.6442 12.6919 84.9506 11.6667 85.5634 10.7475C86.1997 9.80471 87.1189 9.06229 88.3209 8.5202C89.5465 7.97811 90.996 7.70707 92.6694 7.70707C95.1442 7.70707 97.0886 8.31987 98.5028 9.54546C99.9405 10.771 100.765 12.3973 100.978 14.4242H95.3916C95.2974 13.7407 94.991 13.1987 94.4725 12.798C93.9775 12.3973 93.3176 12.197 92.4927 12.197C91.7856 12.197 91.2435 12.3384 90.8664 12.6212C90.4893 12.8805 90.3007 13.2458 90.3007 13.7172C90.3007 14.2828 90.5954 14.7071 91.1846 14.9899C91.7974 15.2727 92.7401 15.5556 94.0129 15.8384C95.4741 16.2155 96.6644 16.5926 97.5836 16.9697C98.5028 17.3232 99.3041 17.9125 99.9876 18.7374C100.695 19.5387 101.06 20.6229 101.084 21.9899C101.084 23.1448 100.754 24.1818 100.094 25.101C99.4573 25.9966 98.5263 26.7037 97.3007 27.2222C96.0987 27.7407 94.6964 28 93.0937 28Z" fill="#EA0F8A"/>
<path d="M103.58 17.8182C103.58 15.7912 103.957 14.0118 104.711 12.4798C105.489 10.9478 106.538 9.76936 107.858 8.94444C109.178 8.11953 110.651 7.70707 112.277 7.70707C113.668 7.70707 114.881 7.9899 115.919 8.55556C116.979 9.12121 117.792 9.86364 118.358 10.7828V7.9899H124.403V27.7172H118.358V24.9242C117.769 25.8434 116.944 26.5859 115.883 27.1515C114.846 27.7172 113.632 28 112.242 28C110.639 28 109.178 27.5875 107.858 26.7626C106.538 25.9141 105.489 24.7239 104.711 23.1919C103.957 21.6364 103.58 19.8451 103.58 17.8182ZM118.358 17.8535C118.358 16.3451 117.934 15.1549 117.085 14.2828C116.26 13.4108 115.247 12.9747 114.045 12.9747C112.843 12.9747 111.818 13.4108 110.969 14.2828C110.144 15.1313 109.732 16.3098 109.732 17.8182C109.732 19.3266 110.144 20.5286 110.969 21.4242C111.818 22.2963 112.843 22.7323 114.045 22.7323C115.247 22.7323 116.26 22.2963 117.085 21.4242C117.934 20.5522 118.358 19.362 118.358 17.8535Z" fill="#EA0F8A"/>
<path d="M138.676 13.0101H135.423V27.7172H129.378V13.0101H127.186V7.9899H129.378V7.42424C129.378 4.99663 130.073 3.15825 131.464 1.90909C132.854 0.636364 134.893 0 137.58 0C138.028 0 138.358 0.0117844 138.57 0.0353531V5.16162C137.415 5.09091 136.602 5.25589 136.131 5.65657C135.659 6.05724 135.423 6.77609 135.423 7.81313V7.9899H138.676V13.0101Z" fill="#EA0F8A"/>
<path d="M140.315 17.8182C140.315 15.7912 140.692 14.0118 141.446 12.4798C142.224 10.9478 143.273 9.76936 144.592 8.94444C145.912 8.11953 147.385 7.70707 149.012 7.70707C150.402 7.70707 151.616 7.9899 152.653 8.55556C153.714 9.12121 154.527 9.86364 155.092 10.7828V7.9899H161.138V27.7172H155.092V24.9242C154.503 25.8434 153.678 26.5859 152.618 27.1515C151.581 27.7172 150.367 28 148.976 28C147.374 28 145.912 27.5875 144.592 26.7626C143.273 25.9141 142.224 24.7239 141.446 23.1919C140.692 21.6364 140.315 19.8451 140.315 17.8182ZM155.092 17.8535C155.092 16.3451 154.668 15.1549 153.82 14.2828C152.995 13.4108 151.981 12.9747 150.779 12.9747C149.577 12.9747 148.552 13.4108 147.704 14.2828C146.879 15.1313 146.466 16.3098 146.466 17.8182C146.466 19.3266 146.879 20.5286 147.704 21.4242C148.552 22.2963 149.577 22.7323 150.779 22.7323C151.981 22.7323 152.995 22.2963 153.82 21.4242C154.668 20.5522 155.092 19.362 155.092 17.8535Z" fill="#EA0F8A"/>
<path d="M171.557 11.2778C172.264 10.1936 173.148 9.34512 174.208 8.73232C175.269 8.09596 176.448 7.77778 177.744 7.77778V14.1768H176.082C174.574 14.1768 173.442 14.5067 172.688 15.1667C171.934 15.803 171.557 16.9343 171.557 18.5606V27.7172H165.512V7.9899H171.557V11.2778Z" fill="#EA0F8A"/>
</svg>
